<svg xmlns="http://www.w3.org/2000/svg" width="24" height="24" viewBox="0 -960 960 960"><path d="M750-614q-27 27-62 41t-70 14-69-13.5-61-41.5l-75-75q-15-15-34-22.5t-39-7.5-39 7.5-34 22.5l-75 75-57-57 75-75q27-27 61-40.5t69-13.5 68.5 13.5T469-746l75 75q16 16 35 23.5t39 7.5 39.5-7.5T693-671l75-75 57 57zm0 200q-27 27-61.5 40.5T619-360t-69.5-13.5T488-414l-75-75q-15-15-34-22.5t-39-7.5-39 7.5-34 22.5l-75 75-57-56 75-76q27-27 61-40.5t69-13.5 68.5 13.5T469-546l75 75q16 16 35 23.5t39 7.5 39.5-7.5T693-471l75-75 57 57zm-1 200q-27 27-61 40.5T619-160t-69.5-13.5T488-214l-76-75q-15-15-34-22.5t-39-7.5-39 7.5-34 22.5l-75 75-56-56 75-76q27-27 61-40.5t69-13.5 68.5 13.5T469-346l75 75q16 16 35.5 23.5T619-240t39-7.5 35-23.5l75-75 56 57z"/></svg>